<svg version="1" xmlns="http://www.w3.org/2000/svg" width="170.667" height="170.667" viewBox="0 0 128.000000 128.000000"><path d="M72.4 21.2c-1.4 2.4-5.2 8.9-8.5 14.5l-6 10.3H29.2l-8.1 13.9C16.6 67.6 13 74.4 13 75.1c0 .7.9.9 2.5.5 2.8-.7 3.2.2 1 3-.8 1-1.5 2.2-1.5 2.6 0 .4 4.9.9 10.9 1l10.9.3-6.4 10.7-6.3 10.8H27c3.5 0 3.6.2 1.4 3.6l-1.7 2.5 14.8-.3 14.8-.3L64.1 96 72 82.5l14.7-.5 14.7-.5 8.2-14c7.9-13.5 8.1-14 5.8-14.3-2.4-.3-3.3-2.6-1.4-3.7.6-.3 1-1.3 1-2.1 0-1.1-2-1.4-10.5-1.4-5.8 0-10.5-.3-10.5-.8 0-.4 2.7-5.2 5.9-10.7l5.9-10-2.9-.5c-2.8-.5-2.9-.6-1.5-2.5 3.2-4.2 2.4-4.5-12.4-4.5H75l-2.6 4.2zM93 24.6c0 .3-3.4 6.3-7.5 13.4-4.1 7.1-7.5 13.3-7.5 13.9 0 .7 4.5 1.1 13.5 1.1 7.4 0 13.5.3 13.4.7 0 .5-1.9 3.9-4.3 7.8l-4.2 7-14.5.3-14.5.3L59 83.5 50.5 98h-7.7c-4.3 0-7.8-.4-7.8-.9s3.4-6.6 7.5-13.7S50 70.2 50 69.8c0-.5-6.1-.8-13.5-.8S23 68.7 23 68.3c0-.3 1.9-3.9 4.2-7.9l4.3-7.4H60l2.6-4.3c1.4-2.3 5.2-8.8 8.5-14.5l6-10.2h8c4.3 0 7.9.3 7.9.6z"/></svg>